<svg xmlns="http://www.w3.org/2000/svg" width="1000" height="1000"><path d="M742.862 710.559h-80.976c-14.873 0-26.97-13.556-26.97-30.059s12.163-30.059 26.97-30.059h67.49c8.131 0 13.486-6.041 13.486-15.03v-421.19c0-9.062-5.42-15.03-13.485-15.03H459.479c-8.13 0-13.485 6.041-13.485 15.03v15.029c0 16.577-12.163 30.059-26.97 30.059-14.807 0-26.97-13.556-26.97-30.059v-30.059c0-33.08 24.326-60.191 54.006-60.191h296.934c29.68 0 54.006 27.112 54.006 60.191v451.25c-.132 33.08-24.458 60.118-54.138 60.118zm-134.982-361v451.25c0 33.08-24.326 60.191-54.006 60.191H257.006C227.326 861 203 833.888 203 800.809v-451.25c0-33.08 24.326-60.191 54.006-60.191H553.94c29.68.073 53.94 27.111 53.94 60.19zm-67.425 0H270.49c-8.13 0-13.485 6.041-13.485 15.03v421.19c0 9.062 5.42 15.03 13.485 15.03h269.898c8.064 0 13.485-6.041 13.485-15.03V364.662c.066-9.062-5.355-15.103-13.42-15.103z"/></svg>