<svg width="20" height="20" fill="none" xmlns="http://www.w3.org/2000/svg"><path d="M7.192 18.632a1.25 1.25 0 01.924.247l1.123.863a1.25 1.25 0 001.522 0l1.123-.863a1.25 1.25 0 01.924-.247l1.405.185a1.25 1.25 0 001.318-.76l.54-1.309a1.246 1.246 0 01.677-.676l1.309-.541a1.249 1.249 0 00.76-1.318l-.185-1.405a1.25 1.25 0 01.247-.924l.863-1.123a1.25 1.25 0 000-1.522l-.863-1.123a1.25 1.25 0 01-.247-.924l.185-1.405a1.25 1.25 0 00-.76-1.318l-1.309-.54a1.245 1.245 0 01-.676-.677l-.541-1.309a1.25 1.25 0 00-1.318-.76l-1.405.185a1.249 1.249 0 01-.924-.247L10.761.258a1.25 1.25 0 00-1.522 0l-1.123.863a1.249 1.249 0 01-.924.247l-1.405-.185a1.25 1.25 0 00-1.318.76l-.54 1.309a1.245 1.245 0 01-.677.676l-1.309.541a1.249 1.249 0 00-.76 1.318l.185 1.405a1.249 1.249 0 01-.247.924L.258 9.239a1.25 1.25 0 000 1.522l.863 1.123c.2.263.29.595.247.924l-.185 1.405a1.25 1.25 0 00.76 1.318l1.309.54c.306.127.55.37.676.677l.541 1.309a1.248 1.248 0 001.318.76l1.405-.185z" fill="#27AF4C"/><path d="M6.25 10.126l2.87 3L13.75 7.5" stroke="#fff" stroke-width="2" stroke-linecap="round" stroke-linejoin="round"/></svg>